<svg width="31" height="35" viewBox="0 0 31 35" fill="none" xmlns="http://www.w3.org/2000/svg">
<path d="M26.2688 2C25.5 2.00002 24 2.00002 23 3.50002C22.5 1.50002 21.0629 0.543785 19.1593 0.543785C17.2558 0.543785 15.6269 1.69784 14.9781 3.32011C14.192 2.66224 13.1686 2.2628 12.0498 2.2628C10.1463 2.2628 8.51733 3.41685 7.8686 5.03912C7.08246 4.38125 6.05898 3.98181 4.94029 3.98181C2.46885 3.98181 0.458252 5.92655 0.458252 8.31683V11.755V13.4741V20.3505C0.458252 28.4282 7.25284 34.9999 15.6045 34.9999C23.9562 34.9999 30.7508 28.4282 30.7508 20.3505V11.755V6.33501C30.7508 3.94474 28.7402 1.99993 26.2688 2ZM16.5319 6.5979V4.8788C16.5319 3.47752 17.7104 2.33759 19.1593 2.33759C20.6081 2.33759 21.7867 3.47752 21.7867 4.8788V6.5979V7.42011H16.5319V6.5979ZM9.42242 8.31701V6.5979C9.42242 5.19662 10.601 4.05669 12.0498 4.05669C13.4986 4.05669 14.6772 5.19662 14.6772 6.5979V7.42011H12.9384C11.4471 7.42011 10.2338 8.59366 10.2338 10.0361C10.2338 11.696 10.9285 13.2016 12.0509 14.2963H12.0498C10.601 14.2963 9.42242 13.1564 9.42242 11.7551V8.31701ZM2.31289 11.7552V8.31701C2.31289 6.91572 3.49148 5.77579 4.94029 5.77579C6.38909 5.77579 7.56769 6.91572 7.56769 8.31701V11.7552V13.4743C7.56769 14.8755 6.38909 16.0155 4.94029 16.0155C3.49148 16.0155 2.31289 14.8756 2.31289 13.4743V11.7552ZM28.8962 20.3505C28.8962 27.4391 22.9335 33.2062 15.6045 33.2062C8.27556 33.2062 2.31289 27.4392 2.31289 20.3505V16.9831C3.05175 17.5021 3.95938 17.8092 4.94029 17.8092C6.8438 17.8092 8.47278 16.6552 9.1215 15.0329C9.90764 15.6908 10.9311 16.0902 12.0498 16.0902C12.7589 16.0902 13.4492 15.9284 14.0747 15.6196C14.8192 15.9224 15.6364 16.0902 16.4932 16.0902H16.9786C14.5094 17.8158 12.8999 20.6237 12.8999 23.7887V25.5078C12.8999 26.0031 13.3152 26.4047 13.8272 26.4047C14.3393 26.4047 14.7545 26.003 14.7545 25.5078V23.7887C14.7545 19.5437 18.3252 16.0902 22.7141 16.0902C23.2262 16.0902 23.6414 15.6886 23.6414 15.1933C23.6414 14.698 23.2261 14.2964 22.7141 14.2964H16.4932C15.7937 14.2964 15.1321 14.1372 14.5441 13.8553C14.4907 13.8213 14.4342 13.7929 14.3756 13.7704C13.0136 13.0449 12.0885 11.6433 12.0885 10.0361C12.0885 9.58274 12.4699 9.214 12.9385 9.214H26.2689C27.7177 9.214 28.8963 10.3539 28.8963 11.7552L28.8962 20.3505ZM28.8962 8.24623C28.1573 7.72727 27.2497 7.42011 26.2688 7.42011H23.6414V6.5979V4.8788V6.33501C23.6414 4.93373 24.82 3.7938 26.2688 3.7938C27.7176 3.7938 28.8962 4.93373 28.8962 6.33501V8.24623Z" fill="#707FFF"/>
</svg>
